<svg fill="white" xmlns="http://www.w3.org/2000/svg" xmlns:xlink="http://www.w3.org/1999/xlink" version="1.1" x="0px" y="0px" viewBox="0 0 50 62.5" enable-background="new 0 0 50 50" xml:space="preserve"><g><path fill-rule="evenodd" clip-rule="evenodd" d="M21.098,21.59c0.975,0,1.766,0.79,1.766,1.766c0,0.976-0.791,1.766-1.766,1.766   c-0.976,0-1.766-0.79-1.766-1.766C19.332,22.381,20.122,21.59,21.098,21.59 M28.901,21.59c0.976,0,1.767,0.79,1.767,1.766   c0,0.976-0.791,1.766-1.767,1.766c-0.975,0-1.766-0.79-1.766-1.766C27.136,22.381,27.927,21.59,28.901,21.59z M35.581,3.618   c-5.737-4.824-15.425-4.824-21.162,0C9.727,7.562,8.013,14.113,9.488,19.97c0.709,2.814,2.151,5.448,4.33,7.518   c-2.986,1.992-3.441,5.187-3.88,8.283c-0.465,3.285-0.912,6.679-6.381,6.757c-1.849,0.026-2.032,2.774-0.194,3.035   c7.61,1.084,9.06-2.92,10.575-6.843c0.68-1.763,1.38-3.574,3.047-4.658c-0.171,1.494,0.102,3.151,0.381,4.86   c0.492,3.002,1.017,6.467-1.789,8.279c-1.573,1.014-0.229,3.405,1.443,2.65c4.857-2.195,5.953-7.073,6.959-11.325   c0.311-1.315,0.611-2.588,1.018-3.673c0.405,1.085,0.706,2.358,1.018,3.672c1.007,4.254,2.106,9.131,6.965,11.327   c1.699,0.768,3.005-1.64,1.443-2.65c-2.806-1.812-2.281-5.277-1.789-8.279c0.28-1.709,0.551-3.366,0.381-4.86   c1.667,1.084,2.367,2.895,3.047,4.658c1.514,3.923,2.965,7.927,10.575,6.843c1.837-0.26,1.655-3.009-0.195-3.035   c-5.469-0.079-5.916-3.472-6.381-6.757c-0.439-3.097-0.893-6.292-3.879-8.283c2.18-2.07,3.621-4.704,4.33-7.518   C41.987,14.112,40.273,7.562,35.581,3.618z"/></g></svg>